<svg width="23" height="23" viewBox="0 0 23 23" fill="none" xmlns="http://www.w3.org/2000/svg">
<circle cx="11.5" cy="11.5" r="10.9" stroke="black" stroke-width="1.2"/>
<path d="M11.293 6.44922H11.9727V17.0664H11.293V6.44922ZM13.5664 9.64844C13.5391 9.375 13.4414 9.13867 13.2734 8.93945C13.1094 8.74023 12.8887 8.58984 12.6113 8.48828C12.3379 8.38672 12.0312 8.33594 11.6914 8.33594C11.3242 8.33594 11 8.39453 10.7188 8.51172C10.4375 8.62891 10.2188 8.79492 10.0625 9.00977C9.90625 9.2207 9.82812 9.46094 9.82812 9.73047C9.83203 10.125 9.99414 10.4277 10.3145 10.6387C10.6348 10.8457 11.0195 11.0039 11.4688 11.1133L12.3125 11.3477C12.9688 11.5156 13.5332 11.7734 14.0059 12.1211C14.4785 12.4688 14.7148 12.9922 14.7148 13.6914C14.7148 14.1562 14.5938 14.5762 14.3516 14.9512C14.1094 15.3223 13.7559 15.6152 13.291 15.8301C12.8262 16.0449 12.2734 16.1523 11.6328 16.1523C11.0312 16.1523 10.5078 16.0527 10.0625 15.8535C9.61719 15.6543 9.26562 15.3789 9.00781 15.0273C8.75391 14.6758 8.60938 14.2656 8.57422 13.7969H9.65234C9.67969 14.1016 9.78516 14.3594 9.96875 14.5703C10.1562 14.7812 10.3945 14.9395 10.6836 15.0449C10.9727 15.1465 11.2891 15.1953 11.6328 15.1914C12.0234 15.1914 12.375 15.1289 12.6875 15.0039C13 14.8789 13.2441 14.7012 13.4199 14.4707C13.5957 14.2363 13.6836 13.9688 13.6836 13.668C13.6836 13.4062 13.6113 13.1875 13.4668 13.0117C13.3223 12.832 13.1289 12.6895 12.8867 12.584C12.6484 12.4746 12.3555 12.3711 12.0078 12.2734L10.9648 11.9922C10.2695 11.7891 9.73438 11.5078 9.35938 11.1484C8.98828 10.7891 8.80469 10.332 8.80859 9.77734C8.80859 9.30859 8.93555 8.89258 9.18945 8.5293C9.44336 8.16602 9.79297 7.88672 10.2383 7.69141C10.6836 7.49609 11.1797 7.39844 11.7266 7.39844C12.2656 7.39844 12.752 7.49609 13.1855 7.69141C13.6191 7.88672 13.959 8.15625 14.2051 8.5C14.4551 8.83984 14.5859 9.22266 14.5977 9.64844H13.5664Z" fill="black"/>
</svg>
