<svg width="19" height="20" viewBox="0 0 19 20" fill="none" xmlns="http://www.w3.org/2000/svg">
<path d="M7.25 13V16.75C7.25 17.3467 7.48705 17.919 7.90901 18.341C8.33097 18.7629 8.90326 19 9.5 19H15.5C16.0967 19 16.669 18.7629 17.091 18.341C17.5129 17.919 17.75 17.3467 17.75 16.75L17.75 3.25C17.75 2.65326 17.5129 2.08097 17.091 1.65901C16.669 1.23705 16.0967 1 15.5 1H9.5C8.90326 1 8.33097 1.23705 7.90901 1.65901C7.48705 2.08097 7.25 2.65326 7.25 3.25V7M11 13L14 10M14 10L11 7M14 10L1.25 10" stroke="black" stroke-width="1.5" stroke-linecap="round" stroke-linejoin="round"/>
</svg>
