<svg width="110" height="110" viewBox="0 0 110 110" fill="none" xmlns="http://www.w3.org/2000/svg">
<circle cx="55" cy="55" r="55" fill="#D9D9D9"/>
<path d="M54.9999 55C57.3074 55 59.563 54.3842 61.4816 53.2304C63.4001 52.0767 64.8955 50.4368 65.7785 48.5182C66.6615 46.5996 66.8926 44.4884 66.4424 42.4516C65.9923 40.4148 64.8811 38.5438 63.2495 37.0754C61.6179 35.6069 59.5391 34.6069 57.276 34.2018C55.0129 33.7966 52.6671 34.0045 50.5353 34.7993C48.4035 35.594 46.5814 36.9398 45.2994 38.6665C44.0175 40.3932 43.3333 42.4233 43.3333 44.5C43.3333 47.2848 44.5624 49.9555 46.7503 51.9246C48.9383 53.8938 51.9057 55 54.9999 55ZM54.9999 37C56.6481 37 58.2593 37.4399 59.6297 38.264C61.0001 39.0881 62.0682 40.2594 62.6989 41.6299C63.3296 43.0003 63.4947 44.5083 63.1731 45.9632C62.8516 47.418 62.0579 48.7544 60.8925 49.8033C59.727 50.8522 58.2422 51.5665 56.6257 51.8559C55.0092 52.1453 53.3336 51.9968 51.8109 51.4291C50.2882 50.8614 48.9867 49.9001 48.071 48.6668C47.1553 47.4334 46.6666 45.9834 46.6666 44.5C46.6666 42.5109 47.5446 40.6032 49.1074 39.1967C50.6702 37.7902 52.7898 37 54.9999 37Z" fill="white"/>
<path d="M56.6667 58H53.3333C48.471 58 43.8079 59.7384 40.3697 62.8327C36.9315 65.9271 35 70.1239 35 74.5C35 74.8978 35.1756 75.2794 35.4882 75.5607C35.8007 75.842 36.2246 76 36.6667 76H73.3333C73.7754 76 74.1993 75.842 74.5118 75.5607C74.8244 75.2794 75 74.8978 75 74.5C75 70.1239 73.0685 65.9271 69.6303 62.8327C66.1921 59.7384 61.529 58 56.6667 58ZM38.4333 73C38.8432 69.701 40.5892 66.6535 43.3378 64.4398C46.0864 62.2262 49.6449 61.0016 53.3333 61H56.6667C60.3551 61.0016 63.9136 62.2262 66.6622 64.4398C69.4108 66.6535 71.1568 69.701 71.5667 73H38.4333Z" fill="white"/>
</svg>
