<svg width="50" height="50" viewBox="0 0 50 50" fill="none" xmlns="http://www.w3.org/2000/svg">
<path fill-rule="evenodd" clip-rule="evenodd" d="M25.2513 0L49.6072 8.76453H49.8974V8.86895L50.0001 8.90592H49.8974V15.8327H49.3046L24.9488 24.5972L0.592958 15.8327H0.302559V15.7282L0.199951 15.6913H0.302559V8.76453H0.89533L25.2513 0Z" fill="black"/>
<path fill-rule="evenodd" clip-rule="evenodd" d="M49.8308 20.4363L49.8974 20.5923V28.0214L24.8882 37.3497L24.8505 37.2614L24.7571 37.4802L0 28.2472V20.6374L24.6476 29.8295L49.8308 20.4363Z" fill="black"/>
<path fill-rule="evenodd" clip-rule="evenodd" d="M49.8308 32.9563L49.8974 33.1123V40.5414L24.8882 49.8698L24.8505 49.7814L24.7571 50.0001L0 40.7671V33.1573L24.6477 42.3495L49.8308 32.9563Z" fill="black"/>
</svg>
