<svg width="24" height="24" viewBox="0 0 24 24" fill="none" xmlns="http://www.w3.org/2000/svg">
<path d="M22.5 11.25C22.3437 11.2489 22.1917 11.1991 22.065 11.1075L12 3.92246L1.93505 11.1075C1.77358 11.2031 1.58212 11.2347 1.39847 11.1961C1.21482 11.1574 1.05233 11.0514 0.943067 10.8988C0.833809 10.7462 0.785726 10.5582 0.808308 10.3719C0.830891 10.1856 0.9225 10.0145 1.06505 9.89246L11.565 2.39246C11.6921 2.30202 11.8441 2.25342 12 2.25342C12.156 2.25342 12.308 2.30202 12.435 2.39246L22.935 9.89246C23.0631 9.98516 23.1586 10.1159 23.2079 10.2662C23.2572 10.4164 23.2577 10.5783 23.2095 10.7288C23.1612 10.8794 23.0667 11.0108 22.9393 11.1044C22.8118 11.198 22.6581 11.2489 22.5 11.25Z" fill="black"/>
<path d="M3.75 6.75C3.55109 6.75 3.36032 6.67098 3.21967 6.53033C3.07902 6.38968 3 6.19891 3 6V3C3 2.80109 3.07902 2.61032 3.21967 2.46967C3.36032 2.32902 3.55109 2.25 3.75 2.25H6.75C6.94891 2.25 7.13968 2.32902 7.28033 2.46967C7.42098 2.61032 7.5 2.80109 7.5 3C7.5 3.19891 7.42098 3.38968 7.28033 3.53033C7.13968 3.67098 6.94891 3.75 6.75 3.75H4.5V6C4.5 6.19891 4.42098 6.38968 4.28033 6.53033C4.13968 6.67098 3.94891 6.75 3.75 6.75Z" fill="black"/>
<path d="M18.75 21.75H15C14.8011 21.75 14.6103 21.671 14.4697 21.5303C14.329 21.3897 14.25 21.1989 14.25 21V15.75H9.75V21C9.75 21.1989 9.67098 21.3897 9.53033 21.5303C9.38968 21.671 9.19891 21.75 9 21.75H5.25C4.65326 21.75 4.08097 21.5129 3.65901 21.091C3.23705 20.669 3 20.0967 3 19.5V12C3 11.8011 3.07902 11.6103 3.21967 11.4697C3.36032 11.329 3.55109 11.25 3.75 11.25C3.94891 11.25 4.13968 11.329 4.28033 11.4697C4.42098 11.6103 4.5 11.8011 4.5 12V19.5C4.5 19.6989 4.57902 19.8897 4.71967 20.0303C4.86032 20.171 5.05109 20.25 5.25 20.25H8.25V15C8.25 14.8011 8.32902 14.6103 8.46967 14.4697C8.61032 14.329 8.80109 14.25 9 14.25H15C15.1989 14.25 15.3897 14.329 15.5303 14.4697C15.671 14.6103 15.75 14.8011 15.75 15V20.25H18.75C18.9489 20.25 19.1397 20.171 19.2803 20.0303C19.421 19.8897 19.5 19.6989 19.5 19.5V12C19.5 11.8011 19.579 11.6103 19.7197 11.4697C19.8603 11.329 20.0511 11.25 20.25 11.25C20.4489 11.25 20.6397 11.329 20.7803 11.4697C20.921 11.6103 21 11.8011 21 12V19.5C21 20.0967 20.7629 20.669 20.341 21.091C19.919 21.5129 19.3467 21.75 18.75 21.75Z" fill="black"/>
</svg>
