<svg width="24" height="24" viewBox="0 0 24 24" fill="none" xmlns="http://www.w3.org/2000/svg">
<path d="M15.9455 7.8114C15.8593 7.72045 15.7538 7.65982 15.6291 7.6295L13.5197 7.30613L12.58 5.30529C12.4937 5.15371 12.3595 5.04256 12.2061 4.98192C12.0335 4.92129 11.8513 4.9415 11.6883 5.03245C11.5828 5.09308 11.4869 5.18403 11.4198 5.29519L10.4801 7.30613L8.41862 7.6194L8.38027 7.6295C8.15973 7.68003 8.04467 7.83161 8.00632 7.87203L7.96796 7.92255C7.87208 8.07413 7.83373 8.25603 7.86249 8.43792C7.88167 8.56929 7.9392 8.69056 8.04467 8.82192L9.54047 10.3579L9.1857 12.5609C9.17611 12.672 9.1857 12.8539 9.30076 13.0358L9.33911 13.0863C9.48294 13.2581 9.65553 13.3188 9.74183 13.3289C9.78018 13.339 9.81853 13.339 9.8473 13.339C9.94318 13.339 10.0391 13.3188 10.1445 13.2581L11.9855 12.2375L13.8553 13.2783C14.0087 13.3491 14.1813 13.3592 14.3347 13.2986C14.5073 13.2379 14.6511 13.1066 14.7374 12.9247C14.7853 12.8135 14.8045 12.6821 14.7949 12.5205L14.4402 10.3579L15.9551 8.80171C16.0702 8.67034 16.1277 8.49855 16.1277 8.32677V8.27624C16.1277 8.06403 16.051 7.91245 15.9455 7.8114ZM13.443 10.0042L13.7881 12.096L12.0047 11.1057L10.2212 12.096L10.5568 10.0042L9.11858 8.51877L11.113 8.21561L12.0047 6.31582L12.8964 8.21561L14.8908 8.51877L13.443 10.0042Z" fill="black"/>
<path d="M22.8301 2.74863H20.0398V0.899369C20.0398 0.404211 19.6563 0 19.1865 0H4.82299C4.35315 0 3.96962 0.404211 3.96962 0.899369V2.74863H1.17938C0.527364 2.74863 0 3.30442 0 3.99158V6.55832C0 9.23621 1.8218 11.4998 4.27645 11.9747C4.59286 13.2884 5.16817 14.4808 5.9736 15.4408C6.9708 16.6333 8.25565 17.4922 9.7035 17.9469L8.22688 21.3019H8.21729C7.73787 21.3019 7.35433 21.7061 7.35433 22.2215V24H16.6455V22.2215C16.6455 21.7162 16.262 21.312 15.7826 21.312L14.2964 17.9571C15.7442 17.5023 17.0291 16.6434 18.0263 15.4509C18.8317 14.4909 19.407 13.2985 19.7234 11.9848C22.1877 11.5099 23.9999 9.24632 23.9999 6.56842V3.99158C24.0095 3.30442 23.4821 2.74863 22.8301 2.74863ZM0.949256 6.55832V3.99158C0.949256 3.85011 1.05473 3.73895 1.18897 3.73895H3.9792V9.20589C3.9792 9.77179 4.01756 10.3377 4.09426 10.9036C2.25328 10.368 0.949256 8.60968 0.949256 6.55832ZM18.918 11.2269C18.6783 12.5912 18.1317 13.8139 17.3263 14.7739C16.4058 15.8754 15.1881 16.6636 13.8265 17.0476L12.9636 17.28L15.1785 22.3023H15.7059V22.9996H8.30359V22.3023H8.83095L11.0459 17.28L10.1925 17.0476C8.83095 16.6636 7.61322 15.8754 6.69273 14.7739C5.8873 13.8139 5.34076 12.5811 5.10105 11.2269C4.98599 10.5701 4.91887 9.88295 4.91887 9.20589V0.990316H19.0906V9.20589C19.0906 9.89305 19.0331 10.5701 18.918 11.2269ZM23.0602 6.55832C23.0602 8.60968 21.7466 10.368 19.9248 10.9036C20.0015 10.3478 20.0398 9.78189 20.0398 9.20589V3.73895H22.8301C22.9643 3.73895 23.0698 3.85011 23.0698 3.99158V6.55832H23.0602Z" fill="black"/>
</svg>
